<svg xmlns="http://www.w3.org/2000/svg" viewBox="0 0 256 416" width="256" height="416">
  <path d="M201.816 230.216c-16.186 0-30.697 7.171-40.634 18.461l-25.463-18.026c2.703-7.442 4.255-15.433 4.255-23.797 0-8.219-1.51-16.079-4.112-23.391l25.143-17.86c9.964 11.476 24.582 18.77 40.811 18.77 29.924 0 54.184-24.261 54.184-54.184 0-29.924-24.26-54.184-54.184-54.184-29.916 0-54.176 24.261-54.176 54.184 0 5.348.808 10.505 2.258 15.389l-25.423 18.059c-10.17-13.262-24.57-23.178-41.266-28.112V99.467c23.891-5.632 41.771-27.168 41.771-52.822C125.004 20.882 104.122 0 78.357 0 52.593 0 31.717 20.882 31.717 46.645c0 25.654 17.879 47.19 41.771 52.822v36.631c-33.233 9.813-57.535 40.724-57.535 77.305 0 36.627 24.345 67.571 57.579 77.354v37.094c-23.924 5.617-41.853 27.17-41.853 52.857 0 25.763 20.882 46.645 46.645 46.645s46.645-20.882 46.645-46.645c0-25.687-17.929-47.24-41.853-52.857v-37.094c16.681-4.914 31.076-14.803 41.239-28.025l25.475 18.066c-1.468 4.927-2.285 10.128-2.285 15.522 0 29.924 24.261 54.184 54.184 54.184 29.924 0 54.184-24.261 54.184-54.184 0-29.916-24.261-54.176-54.184-54.176z" fill="#231F20"/>
</svg>
